<?xml version="1.0" standalone="no"?>
<!DOCTYPE svg PUBLIC "-//W3C//DTD SVG 20010904//EN"
 "http://www.w3.org/TR/2001/REC-SVG-20010904/DTD/svg10.dtd">
<svg version="1.0" xmlns="http://www.w3.org/2000/svg"
 width="571.000000pt" height="800.000000pt" viewBox="0 0 571.000000 800.000000"
 preserveAspectRatio="xMidYMid meet">
<metadata>
Created by potrace 1.16, written by Peter Selinger 2001-2019
</metadata>
<g transform="translate(0.000000,800.000000) scale(0.100000,-0.100000)"
fill="#000000" stroke="none">
<path d="M2607 7993 c-3 -2 -31 -6 -63 -8 -33 -3 -97 -12 -144 -21 -47 -9 -96
-17 -110 -19 -14 -2 -25 -5 -25 -6 0 -1 -9 -3 -20 -4 -11 -1 -40 -8 -65 -15
-25 -7 -54 -14 -65 -16 -11 -1 -21 -3 -22 -4 -2 -2 -6 -3 -10 -5 -5 -1 -15 -4
-23 -7 -24 -9 -104 -33 -110 -33 -19 0 -275 -109 -365 -156 -228 -116 -373
-211 -559 -363 -64 -52 -309 -297 -362 -362 -194 -235 -353 -505 -470 -794
-25 -63 -48 -125 -50 -136 -2 -12 -11 -38 -19 -58 -8 -20 -15 -38 -15 -41 0
-3 0 -6 -1 -7 0 -2 -3 -14 -5 -28 -3 -13 -13 -53 -24 -88 -11 -35 -18 -68 -15
-72 3 -5 1 -11 -4 -15 -6 -3 -8 -12 -5 -19 3 -8 0 -17 -5 -21 -6 -3 -9 -10 -6
-14 2 -5 -2 -42 -9 -82 -8 -41 -14 -81 -15 -89 0 -8 -4 -40 -8 -70 -8 -69 -8
-528 0 -595 3 -27 9 -72 12 -100 3 -27 10 -67 16 -88 5 -20 7 -42 4 -47 -3 -5
-1 -11 4 -15 5 -3 10 -13 9 -23 0 -30 41 -188 73 -285 11 -31 22 -66 24 -76 3
-19 25 -73 72 -186 43 -101 128 -265 190 -365 32 -52 72 -117 88 -143 26 -41
110 -152 225 -297 167 -209 499 -628 530 -669 14 -18 30 -38 35 -44 6 -7 66
-82 134 -167 67 -85 135 -171 151 -190 63 -79 308 -388 340 -430 19 -25 37
-47 40 -50 3 -3 46 -57 95 -120 49 -63 92 -117 95 -120 4 -3 33 -39 65 -80
344 -437 365 -459 473 -514 60 -30 96 -39 167 -38 56 0 85 4 103 16 6 4 12 5
12 1 0 -3 28 9 62 26 82 41 160 122 333 343 77 98 145 184 150 190 6 6 58 72
116 146 91 115 337 425 429 540 84 105 249 313 345 435 157 199 314 397 333
420 10 11 58 72 107 135 49 63 97 124 107 135 66 79 229 294 258 341 19 31 50
79 69 108 41 62 170 309 204 391 53 127 114 298 122 341 2 11 4 20 5 22 2 1 4
7 5 12 1 6 4 13 5 18 1 4 3 12 4 17 1 6 5 24 9 40 4 17 10 40 12 53 3 12 7 32
10 45 3 12 8 34 10 49 2 15 9 53 14 85 20 109 24 178 25 433 1 243 -5 347 -23
435 -5 22 -9 47 -10 55 -1 18 -8 63 -11 70 -1 3 -2 8 -2 11 1 4 -8 40 -19 80
-12 41 -22 84 -23 95 -9 70 -123 366 -202 526 -68 135 -223 391 -254 418 -3 3
-32 41 -65 85 -80 106 -348 375 -460 461 -49 37 -92 71 -95 75 -7 9 -199 133
-261 169 -78 45 -333 170 -346 170 -6 0 -41 14 -78 30 -37 17 -75 30 -86 30
-10 0 -19 5 -19 11 0 5 -4 8 -9 5 -5 -3 -25 1 -45 9 -20 8 -38 15 -41 15 -3 0
-6 0 -7 1 -2 0 -10 2 -19 4 -9 1 -43 11 -75 20 -33 10 -69 17 -82 17 -12 0
-25 4 -28 9 -2 4 -11 6 -18 3 -8 -3 -17 0 -21 5 -3 6 -10 9 -14 7 -3 -3 -38 1
-76 8 -39 8 -77 14 -85 14 -8 1 -35 4 -60 7 -54 7 -557 15 -563 8z m428 -575
c28 -1 89 -8 190 -23 68 -10 80 -12 80 -15 0 -1 9 -4 21 -5 11 -1 45 -8 75
-16 30 -7 57 -14 62 -15 4 -1 9 -2 12 -3 3 0 7 -1 10 -1 3 -1 24 -8 47 -16 24
-9 54 -18 67 -20 13 -3 41 -14 62 -24 21 -11 43 -20 49 -20 19 0 218 -99 318
-158 154 -92 286 -195 427 -337 175 -174 252 -271 362 -455 52 -88 153 -290
153 -308 0 -5 11 -35 25 -65 13 -31 27 -67 29 -79 2 -13 11 -43 20 -67 9 -24
13 -47 10 -52 -3 -5 -1 -9 5 -9 5 0 9 -8 9 -17 -1 -10 7 -46 16 -81 9 -34 14
-67 11 -72 -3 -5 -1 -11 4 -15 5 -3 10 -13 10 -23 0 -9 2 -30 4 -47 31 -229
32 -451 3 -630 -7 -44 -11 -85 -9 -91 2 -7 0 -15 -6 -18 -6 -4 -8 -12 -6 -19
3 -7 -4 -42 -14 -79 -11 -38 -17 -68 -14 -68 3 0 0 -7 -7 -15 -7 -8 -10 -15
-7 -15 4 0 0 -19 -9 -41 -8 -23 -16 -51 -18 -63 -13 -65 -114 -295 -187 -424
-85 -149 -307 -451 -497 -677 -10 -11 -57 -72 -107 -135 -49 -63 -92 -117 -95
-120 -3 -3 -30 -36 -60 -75 -30 -38 -57 -72 -60 -75 -3 -3 -46 -57 -95 -120
-49 -63 -92 -117 -95 -120 -3 -3 -30 -36 -60 -75 -103 -132 -583 -736 -612
-770 -9 -11 -52 -65 -95 -120 -43 -55 -105 -135 -138 -177 -33 -43 -63 -77
-68 -78 -4 0 -69 78 -144 173 -75 94 -205 258 -288 362 -214 268 -451 568
-515 650 -30 39 -57 72 -60 75 -3 3 -46 57 -95 120 -50 63 -95 121 -102 128
-7 7 -34 41 -60 75 -26 34 -55 71 -65 82 -9 11 -63 79 -120 150 -57 72 -168
213 -248 314 -196 247 -310 429 -403 646 -35 81 -94 249 -102 293 -2 9 -4 18
-4 20 -1 1 -1 4 -1 7 -1 3 -8 27 -16 54 -8 27 -14 53 -13 58 1 4 0 10 -1 13
-4 10 -17 94 -28 185 -23 176 -23 377 0 542 5 40 11 85 13 100 2 16 4 30 5 33
2 3 2 9 1 13 -1 5 8 43 20 85 11 43 22 90 25 106 2 16 7 32 11 35 5 3 8 11 9
16 1 30 24 96 86 250 32 79 131 260 191 350 39 57 109 152 152 205 29 35 223
230 270 271 85 74 234 179 345 243 59 34 268 136 279 136 5 0 34 11 65 25 31
14 57 24 59 23 1 -1 25 6 54 16 28 9 64 19 80 22 15 3 51 12 79 20 48 14 65
17 154 30 19 2 63 9 97 14 33 6 67 8 75 5 8 -3 32 -1 53 4 34 7 121 7 320 -1z"/>
<path d="M2750 6284 c-14 -2 -52 -9 -85 -15 -33 -6 -72 -13 -86 -14 -14 -2
-54 -15 -88 -29 -33 -13 -61 -22 -61 -18 0 4 -4 2 -8 -3 -4 -6 -27 -19 -52
-30 -216 -93 -424 -298 -539 -530 -41 -82 -92 -221 -84 -229 3 -3 1 -12 -5
-19 -7 -8 -9 -17 -6 -20 3 -3 2 -11 -2 -18 -9 -14 -8 -14 -19 -154 -7 -91 -4
-127 20 -300 2 -11 4 -20 5 -20 2 0 4 -9 5 -20 5 -32 54 -165 84 -226 82 -164
236 -341 382 -439 96 -64 247 -140 279 -140 11 0 20 -5 20 -11 0 -5 4 -8 9 -5
5 3 28 -1 51 -9 24 -8 59 -17 79 -20 20 -3 56 -9 81 -12 55 -9 189 -9 250 0
98 13 120 17 146 27 15 6 29 8 32 6 2 -3 14 1 26 9 11 8 28 15 37 15 31 0 174
72 269 135 206 137 357 331 446 576 13 37 24 76 24 87 0 12 5 24 10 27 6 4 8
11 5 16 -4 5 -3 14 1 21 4 7 9 23 11 37 6 41 5 343 0 371 -3 14 -8 35 -11 48
-4 12 -8 31 -10 42 -8 36 -58 174 -78 218 -31 65 -126 203 -191 276 -106 120
-300 249 -466 311 -112 41 -389 76 -481 59z m288 -603 c236 -82 389 -298 385
-543 -1 -82 -2 -85 -26 -163 -60 -199 -207 -337 -407 -384 -101 -24 -167 -25
-246 -5 -33 8 -70 17 -83 20 -30 6 -101 47 -161 91 -98 73 -192 234 -207 355
-11 88 -6 195 9 204 4 3 6 9 3 13 -8 14 35 121 72 180 70 112 166 187 295 232
65 22 95 27 183 27 88 0 118 -5 183 -27z"/>
<path d="M1199 1372 c-169 -111 -304 -274 -335 -407 -9 -36 -10 -129 -1 -170
24 -122 144 -274 302 -384 70 -49 247 -144 315 -170 19 -8 60 -24 90 -36 30
-13 82 -31 115 -40 33 -10 67 -20 75 -23 8 -3 20 -6 26 -7 6 -2 36 -10 65 -18
30 -9 70 -19 89 -22 19 -3 55 -11 80 -16 25 -6 59 -13 75 -15 17 -3 41 -7 55
-10 50 -9 92 -15 240 -33 125 -15 134 -15 465 -15 294 0 441 6 505 19 14 3 48
7 75 10 28 3 61 7 75 9 14 3 41 8 60 10 19 3 60 11 90 17 30 7 64 13 75 15 11
1 22 3 25 5 3 1 10 3 15 4 6 2 12 4 15 5 3 1 14 3 25 5 27 5 149 41 265 79 52
17 98 29 103 28 4 -1 7 2 7 8 0 5 7 10 16 10 9 0 76 31 149 68 308 160 477
344 501 545 18 155 -90 338 -287 487 -44 33 -84 60 -89 60 -4 0 20 -27 54 -60
82 -78 107 -127 112 -213 3 -50 -2 -82 -17 -121 -38 -104 -178 -221 -367 -308
-92 -42 -322 -121 -330 -113 -3 3 -11 0 -19 -6 -7 -6 -13 -8 -13 -4 0 4 -7 2
-15 -5 -8 -7 -15 -10 -15 -7 0 3 -31 -3 -69 -13 -39 -10 -72 -15 -75 -12 -3 2
-11 0 -18 -5 -7 -6 -20 -11 -28 -11 -19 -1 -77 -10 -110 -17 -14 -3 -47 -8
-75 -11 -27 -3 -61 -7 -75 -9 -14 -1 -54 -6 -90 -9 -36 -3 -87 -9 -114 -12
-27 -4 -155 -7 -285 -9 -246 -2 -439 7 -636 30 -16 2 -48 6 -70 8 -22 2 -60 8
-85 12 -25 5 -52 9 -60 10 -9 0 -21 4 -28 9 -6 4 -16 5 -20 2 -5 -3 -42 4 -83
14 -41 10 -89 22 -108 25 -19 3 -39 9 -45 13 -6 3 -15 7 -21 7 -38 2 -237 72
-335 118 -169 79 -304 188 -351 284 -57 118 -23 251 92 357 60 56 67 69 18 38z"/>
</g>
</svg>
